The Voice S03E22 HDTV x264 HD-ernetoR


Format                           : MPEG-4
Format profile                   : Base Media
Codec ID                         : isom
File size                        : 415 MiB
Duration                         : 42mn 45s
Overall bit rate                 : 1 355 Kbps
Encoded date                     : UTC 2012-11-14 02:30:35
Tagged date                      : UTC 2012-11-14 02:30:35

Video
ID                               : 1
Format                           : AVC
Format/Info                      : Advanced Video Codec
Format profile                   : High@L3.1
Format settings, CABAC           : Yes
Format settings, ReFrames        : 5 frames
Codec ID                         : avc1
Codec ID/Info                    : Advanced Video Coding
Duration                         : 42mn 45s
Bit rate mode                    : Variable
Bit rate                         : 1 223 Kbps
Maximum bit rate                 : 5 393 Kbps
Width                            : 720 pixels
Height                           : 404 pixels
Display aspect ratio             : 16:9
Frame rate mode                  : Constant
Frame rate                       : 29.970 fps
Color space                      : YUV
Chroma subsampling               : 4:2:0
Bit depth                        : 8 bits
Scan type                        : Progressive
Bits/(Pixel*Frame)               : 0.140
Stream size                      : 374 MiB (90%)
Tagged date                      : UTC 2012-11-14 02:30:37
Matrix coefficients              : BT.709-5, BT.1361, IEC 61966-2-4 709, SMPTE RP177

Audio
ID                               : 2
Format                           : AAC
Format/Info                      : Advanced Audio Codec
Format profile                   : LC
Codec ID                         : 40
Duration                         : 42mn 45s
Bit rate mode                    : Variable
Bit rate                         : 128 Kbps
Maximum bit rate                 : 144 Kbps
Channel(s)                       : 2 channels
Channel positions                : Front: L R
Sampling rate                    : 48.0 KHz
Compression mode                 : Lossy
Stream size                      : 39.1 MiB (9%)
Encoded date                     : UTC 2012-11-14 02:30:36
Tagged date                      : UTC 2012-11-14 02:30:37

